<svg xmlns="http://www.w3.org/2000/svg" xmlns:xlink="http://www.w3.org/1999/xlink" width="2390" height="1000" version="1.1" viewBox="0 0 2390 1000"><title>Logo horizontal</title><desc>Created with Sketch.</desc><defs><circle id="path-1" cx="355" cy="355" r="355"/><rect id="path-3" width="800" height="200" x="-40" y="260" rx="58"/></defs><g id="Logos" fill="none" fill-rule="evenodd" stroke="none" stroke-width="1"><g id="Logo-horizontal"><rect id="Rectangle" width="1474" height="50" x="-127" y="475" fill="#484848"/><g id="Lolly" transform="translate(1290.000000, 145.000000)"><text id="Lolly-Pink" fill="#ED174C" font-family="Lato-Bold, Lato" font-size="288" font-weight="bold"><tspan x="480" y="430">Lolly</tspan></text><mask id="mask-2" fill="#fff"><use xlink:href="#path-1"/></mask><use id="Oval" fill="#ED174C" transform="translate(355.000000, 355.000000) rotate(-270.000000) translate(-355.000000, -355.000000)" xlink:href="#path-1"/><text fill="#FFF" font-family="Lato-Bold, Lato" font-size="288" font-weight="bold" mask="url(#mask-2)"><tspan x="480" y="430">Lolly</tspan></text><path id="Path-2" fill="#000" fill-opacity=".05" d="M247.581788,210 C439.193929,263.827812 535,383.788155 535,569.881031 C535,755.973907 435,869.346896 235,910 C385.058598,845.723555 460.087896,728.840973 460.087896,559.352253 C460.087896,389.863533 389.252527,273.412782 247.581788,210 Z" mask="url(#mask-2)" transform="translate(385.000000, 560.000000) rotate(-270.000000) translate(-385.000000, -560.000000)"/><path id="Path-2" fill="#FFF" fill-opacity=".05" d="M51.797608,-160 C237.265869,-87.8722082 330,41.6212794 330,228.480463 C330,415.339646 230,529.179492 30,570 C180.058598,505.458873 255.087896,388.094982 255.087896,217.908329 C255.087896,47.7216749 187.324467,-78.247768 51.797608,-160 Z" mask="url(#mask-2)" transform="translate(180.000000, 205.000000) scale(-1, -1) rotate(-270.000000) translate(-180.000000, -205.000000)"/><rect id="Shadow" width="800" height="200" x="-30" y="270" fill="#000" fill-opacity=".2" mask="url(#mask-2)" transform="translate(370.000000, 370.000000) rotate(-270.000000) translate(-370.000000, -370.000000)"/><rect id="Hilight" width="800" height="200" x="-30" y="250" fill="#FFF" fill-opacity=".6" mask="url(#mask-2)" transform="translate(370.000000, 350.000000) rotate(-270.000000) translate(-370.000000, -350.000000)"/><mask id="mask-4" fill="#fff"><use xlink:href="#path-3"/></mask><ellipse id="Oval-Copy" cx="355" cy="360" fill="#DE1C4C" mask="url(#mask-4)" rx="375" ry="380" transform="translate(355.000000, 360.000000) rotate(-270.000000) translate(-355.000000, -360.000000)"/></g></g></g></svg>