<svg xmlns="http://www.w3.org/2000/svg" xmlns:xlink="http://www.w3.org/1999/xlink" width="1173" height="376" version="1.1" viewBox="0 0 1173 376"><title>Lollio Copy</title><desc>Created with Sketch.</desc><g id="Logos" fill="none" fill-rule="evenodd" stroke="none" stroke-width="1"><g id="Logo-V2" fill="#ED174C" transform="translate(-36.000000, -121.000000)"><g id="Loll*o"><path id="Lollio-Copy" d="M103.75,437.5 L248.5,437.5 L248.5,493 L36.5,493 L36.5,131.5 L103.75,131.5 L103.75,437.5 Z M391.5,232.5 C410.666763,232.5 428.041589,235.583303 443.625,241.75 C459.208411,247.916697 472.499945,256.66661 483.5,268 C494.500055,279.33339 502.99997,293.166585 509,309.5 C515.00003,325.833415 518,344.083233 518,364.25 C518,384.583435 515.00003,402.916585 509,419.25 C502.99997,435.583415 494.500055,449.499942 483.5,461 C472.499945,472.500058 459.208411,481.333303 443.625,487.5 C428.041589,493.666697 410.666763,496.75 391.5,496.75 C372.333237,496.75 354.916745,493.666697 339.25,487.5 C323.583255,481.333303 310.208389,472.500058 299.125,461 C288.041611,449.499942 279.458364,435.583415 273.375,419.25 C267.291636,402.916585 264.25,384.583435 264.25,364.25 C264.25,344.083233 267.291636,325.833415 273.375,309.5 C279.458364,293.166585 288.041611,279.33339 299.125,268 C310.208389,256.66661 323.583255,247.916697 339.25,241.75 C354.916745,235.583303 372.333237,232.5 391.5,232.5 Z M391.5,449.25 C412.83344,449.25 428.624949,442.083405 438.875,427.75 C449.125051,413.416595 454.25,392.416805 454.25,364.75 C454.25,337.083195 449.125051,316.000072 438.875,301.5 C428.624949,286.999928 412.83344,279.75 391.5,279.75 C369.833225,279.75 353.833385,287.041594 343.5,301.625 C333.166615,316.208406 328,337.249863 328,364.75 C328,392.250137 333.166615,413.208261 343.5,427.625 C353.833385,442.041739 369.833225,449.25 391.5,449.25 Z M632,121.5 L632,493 L570.25,493 L570.25,121.5 L632,121.5 Z M767.5,121.5 L767.5,493 L705.75,493 L705.75,121.5 L767.5,121.5 Z M903,236.5 L903,493 L841.25,493 L841.25,236.5 L903,236.5 Z M912.25,161.75 C912.25,167.08336 911.166677,172.08331 909,176.75 C906.833323,181.41669 903.958351,185.499982 900.375,189 C896.791649,192.500018 892.583357,195.291656 887.75,197.375 C882.916642,199.458344 877.750027,200.5 872.25,200.5 C866.91664,200.5 861.875024,199.458344 857.125,197.375 C852.374976,195.291656 848.250018,192.500018 844.75,189 C841.249982,185.499982 838.458344,181.41669 836.375,176.75 C834.291656,172.08331 833.25,167.08336 833.25,161.75 C833.25,156.249973 834.291656,151.083357 836.375,146.25 C838.458344,141.416642 841.249982,137.250018 844.75,133.75 C848.250018,130.249982 852.374976,127.458344 857.125,125.375 C861.875024,123.291656 866.91664,122.25 872.25,122.25 C877.750027,122.25 882.916642,123.291656 887.75,125.375 C892.583357,127.458344 896.791649,130.249982 900.375,133.75 C903.958351,137.250018 906.833323,141.416642 909,146.25 C911.166677,151.083357 912.25,156.249973 912.25,161.75 Z M1082.25,232.5 C1101.41676,232.5 1118.79159,235.583303 1134.375,241.75 C1149.95841,247.916697 1163.24995,256.66661 1174.25,268 C1185.25005,279.33339 1193.74997,293.166585 1199.75,309.5 C1205.75003,325.833415 1208.75,344.083233 1208.75,364.25 C1208.75,384.583435 1205.75003,402.916585 1199.75,419.25 C1193.74997,435.583415 1185.25005,449.499942 1174.25,461 C1163.24995,472.500058 1149.95841,481.333303 1134.375,487.5 C1118.79159,493.666697 1101.41676,496.75 1082.25,496.75 C1063.08324,496.75 1045.66674,493.666697 1030,487.5 C1014.33326,481.333303 1000.95839,472.500058 989.875,461 C978.791611,449.499942 970.208364,435.583415 964.125,419.25 C958.041636,402.916585 955,384.583435 955,364.25 C955,344.083233 958.041636,325.833415 964.125,309.5 C970.208364,293.166585 978.791611,279.33339 989.875,268 C1000.95839,256.66661 1014.33326,247.916697 1030,241.75 C1045.66674,235.583303 1063.08324,232.5 1082.25,232.5 Z M1082.25,449.25 C1103.58344,449.25 1119.37495,442.083405 1129.625,427.75 C1139.87505,413.416595 1145,392.416805 1145,364.75 C1145,337.083195 1139.87505,316.000072 1129.625,301.5 C1119.37495,286.999928 1103.58344,279.75 1082.25,279.75 C1060.58323,279.75 1044.58338,287.041594 1034.25,301.625 C1023.91661,316.208406 1018.75,337.249863 1018.75,364.75 C1018.75,392.250137 1023.91661,413.208261 1034.25,427.625 C1044.58338,442.041739 1060.58323,449.25 1082.25,449.25 Z"/></g></g></g></svg>