<?xml version="1.0" encoding="UTF-8"?>
<svg width="2390px" height="1000px" viewBox="0 0 2390 1000" version="1.1" xmlns="http://www.w3.org/2000/svg" xmlns:xlink="http://www.w3.org/1999/xlink">
    <!-- Generator: Sketch 46.2 (44496) - http://www.bohemiancoding.com/sketch -->
    <title>Logo horizontal</title>
    <desc>Created with Sketch.</desc>
    <defs>
        <circle id="path-1" cx="355" cy="355" r="355"></circle>
        <rect id="path-3" x="-40" y="260" width="800" height="200" rx="58"></rect>
    </defs>
    <g id="Logos" stroke="none" stroke-width="1" fill="none" fill-rule="evenodd">
        <g id="Logo-horizontal">
            <rect id="Rectangle" fill="#484848" x="-127" y="475" width="1474" height="50"></rect>
            <g id="Lolly" transform="translate(1290.000000, 145.000000)">
                <text id="Lolly-Pink" font-family="Lato-Bold, Lato" font-size="288" font-weight="bold" fill="#ED174C">
                    <tspan x="480" y="430">Lolly</tspan>
                </text>
                <mask id="mask-2" fill="white">
                    <use xlink:href="#path-1"></use>
                </mask>
                <use id="Oval" fill="#ED174C" transform="translate(355.000000, 355.000000) rotate(-270.000000) translate(-355.000000, -355.000000) " xlink:href="#path-1"></use>
                <text mask="url(#mask-2)" font-family="Lato-Bold, Lato" font-size="288" font-weight="bold" fill="#FFFFFF">
                    <tspan x="480" y="430">Lolly</tspan>
                </text>
                <path d="M247.581788,210 C439.193929,263.827812 535,383.788155 535,569.881031 C535,755.973907 435,869.346896 235,910 C385.058598,845.723555 460.087896,728.840973 460.087896,559.352253 C460.087896,389.863533 389.252527,273.412782 247.581788,210 Z" id="Path-2" fill-opacity="0.05" fill="#000000" mask="url(#mask-2)" transform="translate(385.000000, 560.000000) rotate(-270.000000) translate(-385.000000, -560.000000) "></path>
                <path d="M51.797608,-160 C237.265869,-87.8722082 330,41.6212794 330,228.480463 C330,415.339646 230,529.179492 30,570 C180.058598,505.458873 255.087896,388.094982 255.087896,217.908329 C255.087896,47.7216749 187.324467,-78.247768 51.797608,-160 Z" id="Path-2" fill-opacity="0.05" fill="#FFFFFF" mask="url(#mask-2)" transform="translate(180.000000, 205.000000) scale(-1, -1) rotate(-270.000000) translate(-180.000000, -205.000000) "></path>
                <rect id="Shadow" fill-opacity="0.2" fill="#000000" mask="url(#mask-2)" transform="translate(370.000000, 370.000000) rotate(-270.000000) translate(-370.000000, -370.000000) " x="-30" y="270" width="800" height="200"></rect>
                <rect id="Hilight" fill-opacity="0.6" fill="#FFFFFF" mask="url(#mask-2)" transform="translate(370.000000, 350.000000) rotate(-270.000000) translate(-370.000000, -350.000000) " x="-30" y="250" width="800" height="200"></rect>
                <mask id="mask-4" fill="white">
                    <use xlink:href="#path-3"></use>
                </mask>
                <g id="Mask" transform="translate(360.000000, 360.000000) rotate(-270.000000) translate(-360.000000, -360.000000) "></g>
                <ellipse id="Oval-Copy" fill="#DE1C4C" mask="url(#mask-4)" transform="translate(355.000000, 360.000000) rotate(-270.000000) translate(-355.000000, -360.000000) " cx="355" cy="360" rx="375" ry="380"></ellipse>
            </g>
        </g>
    </g>
</svg>