<?xml version="1.0" encoding="UTF-8"?>
<svg width="1173px" height="376px" viewBox="0 0 1173 376" version="1.1" xmlns="http://www.w3.org/2000/svg" xmlns:xlink="http://www.w3.org/1999/xlink">
    <!-- Generator: Sketch 46.2 (44496) - http://www.bohemiancoding.com/sketch -->
    <title>L*llio</title>
    <desc>Created with Sketch.</desc>
    <defs>
        <circle id="path-1" cx="139.5" cy="139.5" r="139.5"></circle>
        <rect id="path-3" x="-15" y="101" width="315" height="77" rx="38.5"></rect>
    </defs>
    <g id="Logos" stroke="none" stroke-width="1" fill="none" fill-rule="evenodd">
        <g id="Logo-V2" transform="translate(-1773.000000, -931.000000)">
            <g id="L*llio" transform="translate(1737.000000, 810.000000)">
                <path d="M103.75,437.5 L248.5,437.5 L248.5,493 L36.5,493 L36.5,131.5 L103.75,131.5 L103.75,437.5 Z M632,121.5 L632,493 L570.25,493 L570.25,121.5 L632,121.5 Z M767.5,121.5 L767.5,493 L705.75,493 L705.75,121.5 L767.5,121.5 Z M903,236.5 L903,493 L841.25,493 L841.25,236.5 L903,236.5 Z M912.25,161.75 C912.25,167.08336 911.166677,172.08331 909,176.75 C906.833323,181.41669 903.958351,185.499982 900.375,189 C896.791649,192.500018 892.583357,195.291656 887.75,197.375 C882.916642,199.458344 877.750027,200.5 872.25,200.5 C866.91664,200.5 861.875024,199.458344 857.125,197.375 C852.374976,195.291656 848.250018,192.500018 844.75,189 C841.249982,185.499982 838.458344,181.41669 836.375,176.75 C834.291656,172.08331 833.25,167.08336 833.25,161.75 C833.25,156.249973 834.291656,151.083357 836.375,146.25 C838.458344,141.416642 841.249982,137.250018 844.75,133.75 C848.250018,130.249982 852.374976,127.458344 857.125,125.375 C861.875024,123.291656 866.91664,122.25 872.25,122.25 C877.750027,122.25 882.916642,123.291656 887.75,125.375 C892.583357,127.458344 896.791649,130.249982 900.375,133.75 C903.958351,137.250018 906.833323,141.416642 909,146.25 C911.166677,151.083357 912.25,156.249973 912.25,161.75 Z M1082.25,232.5 C1101.41676,232.5 1118.79159,235.583303 1134.375,241.75 C1149.95841,247.916697 1163.24995,256.66661 1174.25,268 C1185.25005,279.33339 1193.74997,293.166585 1199.75,309.5 C1205.75003,325.833415 1208.75,344.083233 1208.75,364.25 C1208.75,384.583435 1205.75003,402.916585 1199.75,419.25 C1193.74997,435.583415 1185.25005,449.499942 1174.25,461 C1163.24995,472.500058 1149.95841,481.333303 1134.375,487.5 C1118.79159,493.666697 1101.41676,496.75 1082.25,496.75 C1063.08324,496.75 1045.66674,493.666697 1030,487.5 C1014.33326,481.333303 1000.95839,472.500058 989.875,461 C978.791611,449.499942 970.208364,435.583415 964.125,419.25 C958.041636,402.916585 955,384.583435 955,364.25 C955,344.083233 958.041636,325.833415 964.125,309.5 C970.208364,293.166585 978.791611,279.33339 989.875,268 C1000.95839,256.66661 1014.33326,247.916697 1030,241.75 C1045.66674,235.583303 1063.08324,232.5 1082.25,232.5 Z M1082.25,449.25 C1103.58344,449.25 1119.37495,442.083405 1129.625,427.75 C1139.87505,413.416595 1145,392.416805 1145,364.75 C1145,337.083195 1139.87505,316.000072 1129.625,301.5 C1119.37495,286.999928 1103.58344,279.75 1082.25,279.75 C1060.58323,279.75 1044.58338,287.041594 1034.25,301.625 C1023.91661,316.208406 1018.75,337.249863 1018.75,364.75 C1018.75,392.250137 1023.91661,413.208261 1034.25,427.625 C1044.58338,442.041739 1060.58323,449.25 1082.25,449.25 Z" id="Lollio" fill="#ED174C"></path>
                <g id="Lolly-Copy" transform="translate(250.000000, 153.000000)">
                    <rect id="Rectangle-2" fill="#484848" x="129" y="240" width="27.0829493" height="100"></rect>
                    <mask id="mask-2" fill="white">
                        <use xlink:href="#path-1"></use>
                    </mask>
                    <use id="Oval" fill="#ED174C" xlink:href="#path-1"></use>
                    <path d="M140.823019,61 C214.27434,82.1466403 251,129.273918 251,202.381834 C251,275.489749 212.666667,320.029138 136,336 C193.522462,310.74854 222.283694,264.830382 222.283694,198.245528 C222.283694,131.660674 195.130135,85.9121645 140.823019,61 Z" id="Path-2" fill-opacity="0.05" fill="#000000" mask="url(#mask-2)" transform="translate(193.500000, 198.500000) rotate(46.000000) translate(-193.500000, -198.500000) "></path>
                    <path d="M19.3557497,-61 C90.4519166,-32.6429093 126,18.2675441 126,91.73136 C126,165.195176 87.6666667,209.951389 11,226 C68.5224624,200.625612 97.2836936,154.483918 97.2836936,87.5749183 C97.2836936,20.6659188 71.3077123,-28.859054 19.3557497,-61 Z" id="Path-2" fill-opacity="0.05" fill="#FFFFFF" mask="url(#mask-2)" transform="translate(68.500000, 82.500000) scale(-1, -1) rotate(46.000000) translate(-68.500000, -82.500000) "></path>
                    <rect id="Shadow" fill-opacity="0.2" fill="#000000" mask="url(#mask-2)" x="-11" y="106" width="315" height="77"></rect>
                    <rect id="Hilight" fill-opacity="0.6" fill="#FFFFFF" mask="url(#mask-2)" x="-11" y="97" width="315" height="77"></rect>
                    <mask id="mask-4" fill="white">
                        <use xlink:href="#path-3"></use>
                    </mask>
                    <g id="Mask"></g>
                    <ellipse id="Oval-Copy" fill="#DE1C4C" mask="url(#mask-4)" cx="139" cy="141" rx="147" ry="149"></ellipse>
                </g>
            </g>
        </g>
    </g>
</svg>