<?xml version="1.0" encoding="UTF-8"?>
<svg width="1000px" height="2000px" viewBox="0 0 1000 2000" version="1.1" xmlns="http://www.w3.org/2000/svg" xmlns:xlink="http://www.w3.org/1999/xlink">
    <!-- Generator: Sketch 46.2 (44496) - http://www.bohemiancoding.com/sketch -->
    <title>Logo vertical</title>
    <desc>Created with Sketch.</desc>
    <defs>
        <circle id="path-1" cx="453.5" cy="453.5" r="453.5"></circle>
        <rect id="path-3" x="-51" y="332" width="1022" height="255" rx="58"></rect>
    </defs>
    <g id="Logos" stroke="none" stroke-width="1" fill="none" fill-rule="evenodd">
        <g id="Logo-vertical">
            <rect id="Rectangle-2" fill="#484848" x="451" y="123" width="50" height="874"></rect>
            <g id="Lolly" transform="translate(47.000000, 50.000000)">
                <mask id="mask-2" fill="white">
                    <use xlink:href="#path-1"></use>
                </mask>
                <use id="Oval" fill="#ED174C" xlink:href="#path-1"></use>
                <path d="M463.06275,204 C707.687583,272.745805 830,425.952301 830,663.619488 C830,901.286675 702.333333,1046.08018 447,1098 C638.57481,1015.9098 734.362214,866.634043 734.362214,650.172735 C734.362214,433.711427 643.92906,284.987182 463.06275,204 Z" id="Path-2" fill-opacity="0.05" fill="#000000" mask="url(#mask-2)" transform="translate(638.500000, 651.000000) rotate(46.000000) translate(-638.500000, -651.000000) "></path>
                <path d="M65.8282796,-204 C302.609427,-111.814754 421,53.6885667 421,292.509961 C421,531.331356 293.333333,676.828036 38,729 C229.57481,646.511135 325.362214,496.510436 325.362214,278.997905 C325.362214,61.4853736 238.850903,-99.5139281 65.8282796,-204 Z" id="Path-2" fill-opacity="0.05" fill="#FFFFFF" mask="url(#mask-2)" transform="translate(229.500000, 262.500000) scale(-1, -1) rotate(46.000000) translate(-229.500000, -262.500000) "></path>
                <rect id="Shadow" fill-opacity="0.2" fill="#000000" mask="url(#mask-2)" x="-38" y="345" width="1022" height="255"></rect>
                <rect id="Hilight" fill-opacity="0.6" fill="#FFFFFF" mask="url(#mask-2)" x="-38" y="319" width="1022" height="255"></rect>
                <mask id="mask-4" fill="white">
                    <use xlink:href="#path-3"></use>
                </mask>
                <g id="Mask"></g>
                <ellipse id="Oval-Copy" fill="#DE1C4C" mask="url(#mask-4)" cx="453" cy="459.5" rx="479" ry="485.5"></ellipse>
            </g>
            <text id="Lolly-Pink" font-family="Lato-Bold, Lato" font-size="288" font-weight="bold" fill="#ED174C">
                <tspan x="192" y="1281">Lolly</tspan>
            </text>
            <rect id="Rectangle-1" fill="#484848" x="451" y="1342" width="50" height="874"></rect>
        </g>
    </g>
</svg>