<svg xmlns="http://www.w3.org/2000/svg" xmlns:xlink="http://www.w3.org/1999/xlink" width="1000" height="1000" version="1.1" viewBox="0 0 1000 1000"><title>Lolly</title><desc>Created with Sketch.</desc><defs><circle id="path-1" cx="453.5" cy="453.5" r="453.5"/><rect id="path-3" width="1022" height="255" x="-51" y="332" rx="58"/></defs><g id="Logos" fill="none" fill-rule="evenodd" stroke="none" stroke-width="1"><g id="Lolly"><g transform="translate(47.000000, 47.000000)"><mask id="mask-2" fill="#fff"><use xlink:href="#path-1"/></mask><use id="Oval" fill="#ED174C" xlink:href="#path-1"/><path id="Path-2" fill="#000" fill-opacity=".05" d="M463.06275,204 C707.687583,272.745805 830,425.952301 830,663.619488 C830,901.286675 702.333333,1046.08018 447,1098 C638.57481,1015.9098 734.362214,866.634043 734.362214,650.172735 C734.362214,433.711427 643.92906,284.987182 463.06275,204 Z" mask="url(#mask-2)" transform="translate(638.500000, 651.000000) rotate(46.000000) translate(-638.500000, -651.000000)"/><path id="Path-2" fill="#FFF" fill-opacity=".05" d="M65.8282796,-204 C302.609427,-111.814754 421,53.6885667 421,292.509961 C421,531.331356 293.333333,676.828036 38,729 C229.57481,646.511135 325.362214,496.510436 325.362214,278.997905 C325.362214,61.4853736 238.850903,-99.5139281 65.8282796,-204 Z" mask="url(#mask-2)" transform="translate(229.500000, 262.500000) scale(-1, -1) rotate(46.000000) translate(-229.500000, -262.500000)"/><rect id="Shadow" width="1022" height="255" x="-38" y="345" fill="#000" fill-opacity=".2" mask="url(#mask-2)"/><rect id="Hilight" width="1022" height="255" x="-38" y="319" fill="#FFF" fill-opacity=".6" mask="url(#mask-2)"/><mask id="mask-4" fill="#fff"><use xlink:href="#path-3"/></mask><ellipse id="Oval-Copy" cx="453" cy="459.5" fill="#DE1C4C" mask="url(#mask-4)" rx="479" ry="485.5"/></g></g></g></svg>